<svg viewBox="-30 -28 300 300" xmlns="http://www.w3.org/2000/svg" role="img" aria-label="Rangkai mascot — Excited">
  <defs>
    <linearGradient id="bd_02excited" x1="0" y1="0" x2="0" y2="1"><stop offset="0" stop-color="#34c98b"/><stop offset="1" stop-color="#118a58"/></linearGradient>
    <linearGradient id="fc_02excited" x1="0" y1="0" x2="0" y2="1"><stop offset="0" stop-color="#f4fdf8"/><stop offset="1" stop-color="#dcf3e6"/></linearGradient>
    <linearGradient id="lf_02excited" x1="0" y1="0" x2="0" y2="1"><stop offset="0" stop-color="#3fce8f"/><stop offset="1" stop-color="#1f9e69"/></linearGradient>
  </defs>
  <ellipse cx="120" cy="244" rx="58" ry="9" fill="rgba(14,40,28,.13)"/>
  
  <g transform="">
    <path d="M120 78 C 118 55, 122 45.800000000000004, 120 32" stroke="#1f9e69" stroke-width="6" fill="none" stroke-linecap="round"/><g transform="translate(120 32)">
  <path d="M0 0 C -26 -10, -30 -34, -2 -30 C -6 -14, -4 -6, 0 0Z" fill="url(#lf_02excited)"/>
  <path d="M0 0 C 26 -10, 30 -34, 2 -30 C 6 -14, 4 -6, 0 0Z" fill="url(#lf_02excited)"/>
  <path d="M-2 -4 C -8 -14, -12 -20, -16 -24" stroke="#1f9e69" stroke-width="1.6" fill="none" opacity=".5"/>
  <path d="M2 -4 C 8 -14, 12 -20, 16 -24" stroke="#1f9e69" stroke-width="1.6" fill="none" opacity=".5"/></g>
    <rect x="98" y="196" width="15" height="26" rx="7.5" fill="#118a58"/>
    <rect x="127" y="196" width="15" height="26" rx="7.5" fill="#118a58"/>
    <rect x="46" y="72" width="148" height="140" rx="60" fill="url(#bd_02excited)"/>
    <ellipse cx="120" cy="80" rx="22" ry="9" fill="#0c4733"/>
    <ellipse cx="120" cy="79" rx="16" ry="6" fill="#093a29"/>
    <rect x="66" y="98" width="108" height="92" rx="42" fill="url(#fc_02excited)"/>
    <ellipse cx="86" cy="112" rx="9" ry="5" fill="#fff" opacity=".55"/>
    <ellipse cx="84" cy="150" rx="9" ry="6" fill="#f0a6c2" opacity=".55"/><ellipse cx="156" cy="150" rx="9" ry="6" fill="#f0a6c2" opacity=".55"/>
    
    <path d="M92 118 l3.8 8.8 8.8 3.8 -8.8 3.8 L92 142 l-3.8 -8.8 -8.8 -3.8 8.8 -3.8 z" fill="#a32a7d"/><path d="M148 118 l3.8 8.8 8.8 3.8 -8.8 3.8 L148 142 l-3.8 -8.8 -8.8 -3.8 8.8 -3.8 z" fill="#a32a7d"/>
    <path d="M108 150 q12 16 24 0 z" fill="#7a1e5c"/><path d="M113 157 q7 6 14 0" fill="#ff8fb0"/>
    
    <path d="M54 150 L40 120" stroke="#118a58" stroke-width="12" stroke-linecap="round"/><circle cx="40" cy="120" r="9" fill="#118a58"/><path d="M186 150 L200 120" stroke="#118a58" stroke-width="12" stroke-linecap="round"/><circle cx="200" cy="120" r="9" fill="#118a58"/>
  </g>
  <path d="M36 140.9 L38.6 147.4 L45.1 150 L38.6 152.6 L36 159.1 L33.4 152.6 L26.9 150 L33.4 147.4 Z" fill="#f2c14e"/><path d="M206 140.9 L208.6 147.4 L215.1 150 L208.6 152.6 L206 159.1 L203.4 152.6 L196.9 150 L203.4 147.4 Z" fill="#f2c14e"/><path d="M120 -25 L122 -20 L127 -18 L122 -16 L120 -11 L118 -16 L113 -18 L118 -20 Z" fill="#f2c14e"/><path d="M60 24.4 L61.6 28.4 L65.6 30 L61.6 31.6 L60 35.6 L58.4 31.6 L54.4 30 L58.4 28.4 Z" fill="#fff"/><path d="M184 21.7 L185.8 26.2 L190.3 28 L185.8 29.8 L184 34.3 L182.2 29.8 L177.7 28 L182.2 26.2 Z" fill="#fff"/>
</svg>