<svg viewBox="-30 -28 300 300" xmlns="http://www.w3.org/2000/svg" role="img" aria-label="Rangkai mascot — Surprised">
  <defs>
    <linearGradient id="bd_06surprised" x1="0" y1="0" x2="0" y2="1"><stop offset="0" stop-color="#34c98b"/><stop offset="1" stop-color="#118a58"/></linearGradient>
    <linearGradient id="fc_06surprised" x1="0" y1="0" x2="0" y2="1"><stop offset="0" stop-color="#f4fdf8"/><stop offset="1" stop-color="#dcf3e6"/></linearGradient>
    <linearGradient id="lf_06surprised" x1="0" y1="0" x2="0" y2="1"><stop offset="0" stop-color="#3fce8f"/><stop offset="1" stop-color="#1f9e69"/></linearGradient>
  </defs>
  <ellipse cx="120" cy="244" rx="58" ry="9" fill="rgba(14,40,28,.13)"/>
  
  <g transform="">
    <path d="M120 78 C 118 55, 122 45.800000000000004, 120 32" stroke="#1f9e69" stroke-width="6" fill="none" stroke-linecap="round"/><g transform="translate(120 32)">
  <path d="M0 0 C -26 -10, -30 -34, -2 -30 C -6 -14, -4 -6, 0 0Z" fill="url(#lf_06surprised)"/>
  <path d="M0 0 C 26 -10, 30 -34, 2 -30 C 6 -14, 4 -6, 0 0Z" fill="url(#lf_06surprised)"/>
  <path d="M-2 -4 C -8 -14, -12 -20, -16 -24" stroke="#1f9e69" stroke-width="1.6" fill="none" opacity=".5"/>
  <path d="M2 -4 C 8 -14, 12 -20, 16 -24" stroke="#1f9e69" stroke-width="1.6" fill="none" opacity=".5"/></g>
    <rect x="98" y="196" width="15" height="26" rx="7.5" fill="#118a58"/>
    <rect x="127" y="196" width="15" height="26" rx="7.5" fill="#118a58"/>
    <rect x="46" y="72" width="148" height="140" rx="60" fill="url(#bd_06surprised)"/>
    <ellipse cx="120" cy="80" rx="22" ry="9" fill="#0c4733"/>
    <ellipse cx="120" cy="79" rx="16" ry="6" fill="#093a29"/>
    <rect x="66" y="98" width="108" height="92" rx="42" fill="url(#fc_06surprised)"/>
    <ellipse cx="86" cy="112" rx="9" ry="5" fill="#fff" opacity=".55"/>
    <ellipse cx="84" cy="150" rx="9" ry="6" fill="#f0a6c2" opacity=".55"/><ellipse cx="156" cy="150" rx="9" ry="6" fill="#f0a6c2" opacity=".55"/>
    <path d="M82 104 q9 -4 18 0" stroke="#a32a7d" stroke-width="4" fill="none" stroke-linecap="round"/><path d="M140 104 q9 -4 18 0" stroke="#a32a7d" stroke-width="4" fill="none" stroke-linecap="round"/>
    <circle cx="92" cy="130" r="15.5" fill="#fff" stroke="#a32a7d" stroke-width="3"/><circle cx="92" cy="132" r="8.5" fill="#a32a7d"/><circle cx="95.5" cy="128.5" r="3" fill="#fff"/>
  <circle cx="148" cy="130" r="15.5" fill="#fff" stroke="#a32a7d" stroke-width="3"/><circle cx="148" cy="132" r="8.5" fill="#a32a7d"/><circle cx="151.5" cy="128.5" r="3" fill="#fff"/>
    <ellipse cx="120" cy="159" rx="7" ry="9" fill="#7a1e5c"/>
    
    <path d="M54 148 L38 134" stroke="#118a58" stroke-width="12" stroke-linecap="round"/><circle cx="38" cy="134" r="9" fill="#118a58"/><path d="M186 148 L202 134" stroke="#118a58" stroke-width="12" stroke-linecap="round"/><circle cx="202" cy="134" r="9" fill="#118a58"/>
  </g>
  <path d="M120 -16 v12 M150 -8 l-7 9 M90 -8 l7 9" stroke="#f2c14e" stroke-width="4" stroke-linecap="round"/>
</svg>