<svg viewBox="-30 -28 300 300" xmlns="http://www.w3.org/2000/svg" role="img" aria-label="Rangkai mascot — Sleepy">
  <defs>
    <linearGradient id="bd_07sleepy" x1="0" y1="0" x2="0" y2="1"><stop offset="0" stop-color="#34c98b"/><stop offset="1" stop-color="#118a58"/></linearGradient>
    <linearGradient id="fc_07sleepy" x1="0" y1="0" x2="0" y2="1"><stop offset="0" stop-color="#f4fdf8"/><stop offset="1" stop-color="#dcf3e6"/></linearGradient>
    <linearGradient id="lf_07sleepy" x1="0" y1="0" x2="0" y2="1"><stop offset="0" stop-color="#3fce8f"/><stop offset="1" stop-color="#1f9e69"/></linearGradient>
  </defs>
  <ellipse cx="120" cy="244" rx="58" ry="9" fill="rgba(14,40,28,.13)"/>
  
  <g transform="">
    <g transform="rotate(20 120 78)"><path d="M120 78 C 118 65, 122 59.8, 120 52" stroke="#1f9e69" stroke-width="6" fill="none" stroke-linecap="round"/><g transform="translate(120 50)">
  <path d="M0 0 C -23.92 -9.200000000000001, -27.6 -31.28, -2 -27.6 C -5.5200000000000005 -12.88, -3.68 -6, 0 0Z" fill="url(#lf_07sleepy)"/>
  <path d="M0 0 C 23.92 -9.200000000000001, 27.6 -31.28, 2 -27.6 C 5.5200000000000005 -12.88, 3.68 -6, 0 0Z" fill="url(#lf_07sleepy)"/>
  <path d="M-2 -4 C -8 -14, -12 -20, -16 -24" stroke="#1f9e69" stroke-width="1.6" fill="none" opacity=".5"/>
  <path d="M2 -4 C 8 -14, 12 -20, 16 -24" stroke="#1f9e69" stroke-width="1.6" fill="none" opacity=".5"/></g></g>
    <rect x="98" y="196" width="15" height="26" rx="7.5" fill="#118a58"/>
    <rect x="127" y="196" width="15" height="26" rx="7.5" fill="#118a58"/>
    <rect x="46" y="72" width="148" height="140" rx="60" fill="url(#bd_07sleepy)"/>
    <ellipse cx="120" cy="80" rx="22" ry="9" fill="#0c4733"/>
    <ellipse cx="120" cy="79" rx="16" ry="6" fill="#093a29"/>
    <rect x="66" y="98" width="108" height="92" rx="42" fill="url(#fc_07sleepy)"/>
    <ellipse cx="86" cy="112" rx="9" ry="5" fill="#fff" opacity=".55"/>
    <ellipse cx="84" cy="152" rx="9" ry="6" fill="#f0a6c2" opacity=".4"/><ellipse cx="156" cy="152" rx="9" ry="6" fill="#f0a6c2" opacity=".4"/>
    
    <path d="M82 130 q10 8 20 0" stroke="#a32a7d" stroke-width="4.5" fill="none" stroke-linecap="round"/><path d="M138 130 q10 8 20 0" stroke="#a32a7d" stroke-width="4.5" fill="none" stroke-linecap="round"/>
    <ellipse cx="120" cy="159" rx="8.5" ry="10.5" fill="#7a1e5c"/><ellipse cx="120" cy="164" rx="5" ry="4.5" fill="#ff8fb0"/>
    
    <path d="M52 150 L40 178" stroke="#118a58" stroke-width="12" stroke-linecap="round"/><circle cx="40" cy="178" r="9" fill="#118a58"/><path d="M188 150 L200 178" stroke="#118a58" stroke-width="12" stroke-linecap="round"/><circle cx="200" cy="178" r="9" fill="#118a58"/>
  </g>
  <text x="166" y="60" text-anchor="start" font-family="'Plus Jakarta Sans',system-ui,sans-serif" font-weight="800" font-size="15" fill="#5b8fd6">z</text><text x="180" y="42" text-anchor="start" font-family="'Plus Jakarta Sans',system-ui,sans-serif" font-weight="800" font-size="22" fill="#5b8fd6">Z</text><text x="200" y="20" text-anchor="start" font-family="'Plus Jakarta Sans',system-ui,sans-serif" font-weight="800" font-size="30" fill="#5b8fd6">Z</text>
</svg>