<svg viewBox="-30 -28 300 300" xmlns="http://www.w3.org/2000/svg" role="img" aria-label="Rangkai mascot — Determined">
  <defs>
    <linearGradient id="bd_10determined" x1="0" y1="0" x2="0" y2="1"><stop offset="0" stop-color="#34c98b"/><stop offset="1" stop-color="#118a58"/></linearGradient>
    <linearGradient id="fc_10determined" x1="0" y1="0" x2="0" y2="1"><stop offset="0" stop-color="#f4fdf8"/><stop offset="1" stop-color="#dcf3e6"/></linearGradient>
    <linearGradient id="lf_10determined" x1="0" y1="0" x2="0" y2="1"><stop offset="0" stop-color="#3fce8f"/><stop offset="1" stop-color="#1f9e69"/></linearGradient>
  </defs>
  <ellipse cx="120" cy="244" rx="58" ry="9" fill="rgba(14,40,28,.13)"/>
  
  <g transform="">
    <path d="M120 78 C 118 55, 122 45.800000000000004, 120 32" stroke="#1f9e69" stroke-width="6" fill="none" stroke-linecap="round"/><g transform="translate(120 32)">
  <path d="M0 0 C -26 -10, -30 -34, -2 -30 C -6 -14, -4 -6, 0 0Z" fill="url(#lf_10determined)"/>
  <path d="M0 0 C 26 -10, 30 -34, 2 -30 C 6 -14, 4 -6, 0 0Z" fill="url(#lf_10determined)"/>
  <path d="M-2 -4 C -8 -14, -12 -20, -16 -24" stroke="#1f9e69" stroke-width="1.6" fill="none" opacity=".5"/>
  <path d="M2 -4 C 8 -14, 12 -20, 16 -24" stroke="#1f9e69" stroke-width="1.6" fill="none" opacity=".5"/></g>
    <rect x="98" y="196" width="15" height="26" rx="7.5" fill="#118a58"/>
    <rect x="127" y="196" width="15" height="26" rx="7.5" fill="#118a58"/>
    <rect x="46" y="72" width="148" height="140" rx="60" fill="url(#bd_10determined)"/>
    <ellipse cx="120" cy="80" rx="22" ry="9" fill="#0c4733"/>
    <ellipse cx="120" cy="79" rx="16" ry="6" fill="#093a29"/>
    <rect x="66" y="98" width="108" height="92" rx="42" fill="url(#fc_10determined)"/>
    <ellipse cx="86" cy="112" rx="9" ry="5" fill="#fff" opacity=".55"/>
    <ellipse cx="84" cy="150" rx="9" ry="6" fill="#f0a6c2" opacity=".55"/><ellipse cx="156" cy="150" rx="9" ry="6" fill="#f0a6c2" opacity=".55"/>
    <path d="M82 105 L99 112" stroke="#a32a7d" stroke-width="4.4" fill="none" stroke-linecap="round"/><path d="M141 112 L158 105" stroke="#a32a7d" stroke-width="4.4" fill="none" stroke-linecap="round"/>
    <rect x="84" y="121" width="17" height="21" rx="8" fill="#a32a7d"/><circle cx="90" cy="127" r="3.4" fill="#fff"/>
  <rect x="139" y="121" width="17" height="21" rx="8" fill="#a32a7d"/><circle cx="145" cy="127" r="3.4" fill="#fff"/>
    <path d="M109 156 q11 5 22 0" stroke="#7a1e5c" stroke-width="4.6" fill="none" stroke-linecap="round"/>
    
    <path d="M56 150 L44 116" stroke="#118a58" stroke-width="12" stroke-linecap="round"/><circle cx="44" cy="114" r="10" fill="#118a58"/><path d="M184 150 L196 116" stroke="#118a58" stroke-width="12" stroke-linecap="round"/><circle cx="196" cy="114" r="10" fill="#118a58"/>
  </g>
  <path d="M120 -23.700000000000003 L122.2 -18.2 L127.7 -16 L122.2 -13.8 L120 -8.299999999999999 L117.8 -13.8 L112.3 -16 L117.8 -18.2 Z" fill="#f2c14e"/><path d="M40 100 l-8 -4 M44 112 l-9 0 M200 100 l8 -4 M196 112 l9 0" stroke="#f2c14e" stroke-width="3.4" stroke-linecap="round"/>
</svg>