<svg viewBox="-30 -28 300 300" xmlns="http://www.w3.org/2000/svg" role="img" aria-label="Rangkai mascot — Waving">
  <defs>
    <linearGradient id="bd_11waving" x1="0" y1="0" x2="0" y2="1"><stop offset="0" stop-color="#34c98b"/><stop offset="1" stop-color="#118a58"/></linearGradient>
    <linearGradient id="fc_11waving" x1="0" y1="0" x2="0" y2="1"><stop offset="0" stop-color="#f4fdf8"/><stop offset="1" stop-color="#dcf3e6"/></linearGradient>
    <linearGradient id="lf_11waving" x1="0" y1="0" x2="0" y2="1"><stop offset="0" stop-color="#3fce8f"/><stop offset="1" stop-color="#1f9e69"/></linearGradient>
  </defs>
  <ellipse cx="120" cy="244" rx="58" ry="9" fill="rgba(14,40,28,.13)"/>
  
  <g transform="">
    <path d="M120 78 C 118 63, 122 57, 120 48" stroke="#1f9e69" stroke-width="6" fill="none" stroke-linecap="round"/><g transform="translate(120 48)">
  <path d="M0 0 C -26 -10, -30 -34, -2 -30 C -6 -14, -4 -6, 0 0Z" fill="url(#lf_11waving)"/>
  <path d="M0 0 C 26 -10, 30 -34, 2 -30 C 6 -14, 4 -6, 0 0Z" fill="url(#lf_11waving)"/>
  <path d="M-2 -4 C -8 -14, -12 -20, -16 -24" stroke="#1f9e69" stroke-width="1.6" fill="none" opacity=".5"/>
  <path d="M2 -4 C 8 -14, 12 -20, 16 -24" stroke="#1f9e69" stroke-width="1.6" fill="none" opacity=".5"/></g>
    <rect x="98" y="196" width="15" height="26" rx="7.5" fill="#118a58"/>
    <rect x="127" y="196" width="15" height="26" rx="7.5" fill="#118a58"/>
    <rect x="46" y="72" width="148" height="140" rx="60" fill="url(#bd_11waving)"/>
    <ellipse cx="120" cy="80" rx="22" ry="9" fill="#0c4733"/>
    <ellipse cx="120" cy="79" rx="16" ry="6" fill="#093a29"/>
    <rect x="66" y="98" width="108" height="92" rx="42" fill="url(#fc_11waving)"/>
    <ellipse cx="86" cy="112" rx="9" ry="5" fill="#fff" opacity=".55"/>
    <ellipse cx="84" cy="150" rx="9" ry="6" fill="#f0a6c2" opacity=".55"/><ellipse cx="156" cy="150" rx="9" ry="6" fill="#f0a6c2" opacity=".55"/>
    
    <rect x="84" y="116" width="17" height="28" rx="8.5" fill="#a32a7d"/><circle cx="89" cy="124" r="3.6" fill="#fff"/>
  <rect x="139" y="116" width="17" height="28" rx="8.5" fill="#a32a7d"/><circle cx="144" cy="124" r="3.6" fill="#fff"/>
    <path d="M108 150 q12 16 24 0 z" fill="#7a1e5c"/><path d="M113 157 q7 6 14 0" fill="#ff8fb0"/>
    
    <path d="M52 152 L40 178" stroke="#118a58" stroke-width="12" stroke-linecap="round"/><circle cx="40" cy="178" r="9" fill="#118a58"/><path d="M186 146 L202 116 L212 92" stroke="#118a58" stroke-width="12" stroke-linecap="round" stroke-linejoin="round" fill="none"/><circle cx="212" cy="92" r="10" fill="#118a58"/>
  </g>
  <path d="M224 86 q8 -4 9 4 M226 100 q9 -2 9 7 M222 74 q6 -5 9 1" stroke="#f2c14e" stroke-width="3.2" fill="none" stroke-linecap="round"/><g transform="translate(22 28)"><rect x="-32" y="-21" width="66" height="40" rx="14" fill="#fff" stroke="#1f9e69" stroke-width="2.5"/><path d="M-8 17 l-4 13 l16 -13 z" fill="#fff" stroke="#1f9e69" stroke-width="2.5"/><text x="1" y="7" text-anchor="middle" font-family="'Plus Jakarta Sans',system-ui,sans-serif" font-weight="800" font-size="20" fill="#0e5c43">Hai!</text></g>
</svg>