<svg viewBox="-30 -28 300 300" xmlns="http://www.w3.org/2000/svg" role="img" aria-label="Rangkai mascot — Angry">
  <defs>
    <linearGradient id="bd_13angry" x1="0" y1="0" x2="0" y2="1"><stop offset="0" stop-color="#34c98b"/><stop offset="1" stop-color="#118a58"/></linearGradient>
    <linearGradient id="fc_13angry" x1="0" y1="0" x2="0" y2="1"><stop offset="0" stop-color="#f4fdf8"/><stop offset="1" stop-color="#dcf3e6"/></linearGradient>
    <linearGradient id="lf_13angry" x1="0" y1="0" x2="0" y2="1"><stop offset="0" stop-color="#3fce8f"/><stop offset="1" stop-color="#1f9e69"/></linearGradient>
  </defs>
  <ellipse cx="120" cy="244" rx="58" ry="9" fill="rgba(14,40,28,.13)"/>
  
  <g transform="">
    <path d="M120 78 C 118 55, 122 45.800000000000004, 120 32" stroke="#1f9e69" stroke-width="6" fill="none" stroke-linecap="round"/><g transform="translate(120 32)">
  <path d="M0 0 C -26 -10, -30 -34, -2 -30 C -6 -14, -4 -6, 0 0Z" fill="url(#lf_13angry)"/>
  <path d="M0 0 C 26 -10, 30 -34, 2 -30 C 6 -14, 4 -6, 0 0Z" fill="url(#lf_13angry)"/>
  <path d="M-2 -4 C -8 -14, -12 -20, -16 -24" stroke="#1f9e69" stroke-width="1.6" fill="none" opacity=".5"/>
  <path d="M2 -4 C 8 -14, 12 -20, 16 -24" stroke="#1f9e69" stroke-width="1.6" fill="none" opacity=".5"/></g>
    <rect x="98" y="196" width="15" height="26" rx="7.5" fill="#118a58"/>
    <rect x="127" y="196" width="15" height="26" rx="7.5" fill="#118a58"/>
    <rect x="46" y="72" width="148" height="140" rx="60" fill="url(#bd_13angry)"/>
    <ellipse cx="120" cy="80" rx="22" ry="9" fill="#0c4733"/>
    <ellipse cx="120" cy="79" rx="16" ry="6" fill="#093a29"/>
    <rect x="66" y="98" width="108" height="92" rx="42" fill="url(#fc_13angry)"/>
    <ellipse cx="86" cy="112" rx="9" ry="5" fill="#fff" opacity=".55"/>
    
    <path d="M82 105 L99 112" stroke="#a32a7d" stroke-width="4.4" fill="none" stroke-linecap="round"/><path d="M141 112 L158 105" stroke="#a32a7d" stroke-width="4.4" fill="none" stroke-linecap="round"/>
    <rect x="84" y="121" width="17" height="21" rx="8" fill="#a32a7d"/><circle cx="90" cy="127" r="3.4" fill="#fff"/>
  <rect x="139" y="121" width="17" height="21" rx="8" fill="#a32a7d"/><circle cx="145" cy="127" r="3.4" fill="#fff"/>
    <path d="M108 158 h24" stroke="#7a1e5c" stroke-width="5" stroke-linecap="round"/><path d="M114 154 v8 M120 153 v9 M126 154 v8" stroke="#7a1e5c" stroke-width="2"/>
    
    <path d="M54 150 L42 182" stroke="#118a58" stroke-width="12" stroke-linecap="round"/><circle cx="42" cy="182" r="10" fill="#118a58"/><path d="M186 150 L198 182" stroke="#118a58" stroke-width="12" stroke-linecap="round"/><circle cx="198" cy="182" r="10" fill="#118a58"/>
  </g>
  <g transform="translate(150 92)" stroke="#e2553f" stroke-width="2.6" stroke-linecap="round" fill="none"><path d="M0 0 q5 -1 5 4"/><path d="M6 4 q1 -5 6 -4"/><path d="M-1 7 q5 -1 5 4"/><path d="M5 11 q1 -5 6 -4"/></g><g fill="#d2ddd7"><circle cx="56" cy="96" r="5"/><circle cx="62" cy="93" r="4"/><circle cx="51" cy="94" r="3.4"/></g><g fill="#d2ddd7"><circle cx="186" cy="94" r="5"/><circle cx="192" cy="91" r="4"/><circle cx="181" cy="92" r="3.4"/></g>
</svg>