<svg viewBox="-30 -28 300 300" xmlns="http://www.w3.org/2000/svg" role="img" aria-label="Rangkai mascot — Proud">
  <defs>
    <linearGradient id="bd_14proud" x1="0" y1="0" x2="0" y2="1"><stop offset="0" stop-color="#34c98b"/><stop offset="1" stop-color="#118a58"/></linearGradient>
    <linearGradient id="fc_14proud" x1="0" y1="0" x2="0" y2="1"><stop offset="0" stop-color="#f4fdf8"/><stop offset="1" stop-color="#dcf3e6"/></linearGradient>
    <linearGradient id="lf_14proud" x1="0" y1="0" x2="0" y2="1"><stop offset="0" stop-color="#3fce8f"/><stop offset="1" stop-color="#1f9e69"/></linearGradient>
  </defs>
  <ellipse cx="120" cy="244" rx="58" ry="9" fill="rgba(14,40,28,.13)"/>
  
  <g transform="">
    <path d="M120 78 C 118 55, 122 45.800000000000004, 120 32" stroke="#1f9e69" stroke-width="6" fill="none" stroke-linecap="round"/><g transform="translate(120 32)">
  <path d="M0 0 C -26 -10, -30 -34, -2 -30 C -6 -14, -4 -6, 0 0Z" fill="url(#lf_14proud)"/>
  <path d="M0 0 C 26 -10, 30 -34, 2 -30 C 6 -14, 4 -6, 0 0Z" fill="url(#lf_14proud)"/>
  <path d="M-2 -4 C -8 -14, -12 -20, -16 -24" stroke="#1f9e69" stroke-width="1.6" fill="none" opacity=".5"/>
  <path d="M2 -4 C 8 -14, 12 -20, 16 -24" stroke="#1f9e69" stroke-width="1.6" fill="none" opacity=".5"/></g>
    <rect x="98" y="196" width="15" height="26" rx="7.5" fill="#118a58"/>
    <rect x="127" y="196" width="15" height="26" rx="7.5" fill="#118a58"/>
    <rect x="46" y="72" width="148" height="140" rx="60" fill="url(#bd_14proud)"/>
    <ellipse cx="120" cy="80" rx="22" ry="9" fill="#0c4733"/>
    <ellipse cx="120" cy="79" rx="16" ry="6" fill="#093a29"/>
    <rect x="66" y="98" width="108" height="92" rx="42" fill="url(#fc_14proud)"/>
    <ellipse cx="86" cy="112" rx="9" ry="5" fill="#fff" opacity=".55"/>
    <ellipse cx="84" cy="150" rx="9" ry="6" fill="#f0a6c2" opacity=".55"/><ellipse cx="156" cy="150" rx="9" ry="6" fill="#f0a6c2" opacity=".55"/>
    
    <path d="M83 133 q9 -9 18 0" stroke="#a32a7d" stroke-width="5" fill="none" stroke-linecap="round"/><path d="M139 133 q9 -9 18 0" stroke="#a32a7d" stroke-width="5" fill="none" stroke-linecap="round"/>
    <path d="M110 157 q11 5 20 -3" stroke="#7a1e5c" stroke-width="4.5" fill="none" stroke-linecap="round"/>
    
    <path d="M56 150 L42 170 L76 186" stroke="#118a58" stroke-width="12" stroke-linecap="round" stroke-linejoin="round" fill="none"/><circle cx="76" cy="186" r="9" fill="#118a58"/><path d="M184 150 L198 170 L164 186" stroke="#118a58" stroke-width="12" stroke-linecap="round" stroke-linejoin="round" fill="none"/><circle cx="164" cy="186" r="9" fill="#118a58"/>
  </g>
  <path d="M120 -23 L122 -18 L127 -16 L122 -14 L120 -9 L118 -14 L113 -16 L118 -18 Z" fill="#f2c14e"/><path d="M44 34.4 L45.6 38.4 L49.6 40 L45.6 41.6 L44 45.6 L42.4 41.6 L38.4 40 L42.4 38.4 Z" fill="#f2c14e"/>
</svg>