<svg viewBox="-30 -28 300 300" xmlns="http://www.w3.org/2000/svg" role="img" aria-label="Rangkai mascot — Shy">
  <defs>
    <linearGradient id="bd_15shy" x1="0" y1="0" x2="0" y2="1"><stop offset="0" stop-color="#34c98b"/><stop offset="1" stop-color="#118a58"/></linearGradient>
    <linearGradient id="fc_15shy" x1="0" y1="0" x2="0" y2="1"><stop offset="0" stop-color="#f4fdf8"/><stop offset="1" stop-color="#dcf3e6"/></linearGradient>
    <linearGradient id="lf_15shy" x1="0" y1="0" x2="0" y2="1"><stop offset="0" stop-color="#3fce8f"/><stop offset="1" stop-color="#1f9e69"/></linearGradient>
  </defs>
  <ellipse cx="120" cy="244" rx="58" ry="9" fill="rgba(14,40,28,.13)"/>
  
  <g transform="">
    <path d="M120 78 C 118 63, 122 57, 120 48" stroke="#1f9e69" stroke-width="6" fill="none" stroke-linecap="round"/><g transform="translate(120 48)">
  <path d="M0 0 C -26 -10, -30 -34, -2 -30 C -6 -14, -4 -6, 0 0Z" fill="url(#lf_15shy)"/>
  <path d="M0 0 C 26 -10, 30 -34, 2 -30 C 6 -14, 4 -6, 0 0Z" fill="url(#lf_15shy)"/>
  <path d="M-2 -4 C -8 -14, -12 -20, -16 -24" stroke="#1f9e69" stroke-width="1.6" fill="none" opacity=".5"/>
  <path d="M2 -4 C 8 -14, 12 -20, 16 -24" stroke="#1f9e69" stroke-width="1.6" fill="none" opacity=".5"/></g>
    <rect x="98" y="196" width="15" height="26" rx="7.5" fill="#118a58"/>
    <rect x="127" y="196" width="15" height="26" rx="7.5" fill="#118a58"/>
    <rect x="46" y="72" width="148" height="140" rx="60" fill="url(#bd_15shy)"/>
    <ellipse cx="120" cy="80" rx="22" ry="9" fill="#0c4733"/>
    <ellipse cx="120" cy="79" rx="16" ry="6" fill="#093a29"/>
    <rect x="66" y="98" width="108" height="92" rx="42" fill="url(#fc_15shy)"/>
    <ellipse cx="86" cy="112" rx="9" ry="5" fill="#fff" opacity=".55"/>
    <ellipse cx="82" cy="151" rx="11" ry="7" fill="#f0a6c2" opacity=".82"/><ellipse cx="158" cy="151" rx="11" ry="7" fill="#f0a6c2" opacity=".82"/>
    <path d="M82 112 Q90 106 99 107" stroke="#a32a7d" stroke-width="4" fill="none" stroke-linecap="round"/><path d="M141 107 Q150 106 158 112" stroke="#a32a7d" stroke-width="4" fill="none" stroke-linecap="round"/>
    <rect x="82" y="119" width="17" height="28" rx="8.5" fill="#a32a7d"/><circle cx="87" cy="127" r="3.6" fill="#fff"/>
  <rect x="137" y="119" width="17" height="28" rx="8.5" fill="#a32a7d"/><circle cx="142" cy="127" r="3.6" fill="#fff"/>
    <path d="M113 154 q7 6 14 0" stroke="#7a1e5c" stroke-width="4" fill="none" stroke-linecap="round"/>
    
    <path d="M52 150 L40 178" stroke="#118a58" stroke-width="12" stroke-linecap="round"/><circle cx="40" cy="178" r="9" fill="#118a58"/><path d="M186 150 L198 170 L158 162" stroke="#118a58" stroke-width="12" stroke-linecap="round" stroke-linejoin="round" fill="none"/><circle cx="158" cy="162" r="9" fill="#118a58"/>
  </g>
  <path d="M196 96 q5 4 0 9 M204 100 q5 4 0 9" stroke="#f0a6c2" stroke-width="2.4" fill="none" stroke-linecap="round"/>
</svg>