<svg viewBox="-30 -28 300 300" xmlns="http://www.w3.org/2000/svg" role="img" aria-label="Rangkai mascot — Laughing">
  <defs>
    <linearGradient id="bd_16laughing" x1="0" y1="0" x2="0" y2="1"><stop offset="0" stop-color="#34c98b"/><stop offset="1" stop-color="#118a58"/></linearGradient>
    <linearGradient id="fc_16laughing" x1="0" y1="0" x2="0" y2="1"><stop offset="0" stop-color="#f4fdf8"/><stop offset="1" stop-color="#dcf3e6"/></linearGradient>
    <linearGradient id="lf_16laughing" x1="0" y1="0" x2="0" y2="1"><stop offset="0" stop-color="#3fce8f"/><stop offset="1" stop-color="#1f9e69"/></linearGradient>
  </defs>
  <ellipse cx="120" cy="244" rx="58" ry="9" fill="rgba(14,40,28,.13)"/>
  
  <g transform="rotate(-4 120 150)">
    <path d="M120 78 C 118 63, 122 57, 120 48" stroke="#1f9e69" stroke-width="6" fill="none" stroke-linecap="round"/><g transform="translate(120 48)">
  <path d="M0 0 C -26 -10, -30 -34, -2 -30 C -6 -14, -4 -6, 0 0Z" fill="url(#lf_16laughing)"/>
  <path d="M0 0 C 26 -10, 30 -34, 2 -30 C 6 -14, 4 -6, 0 0Z" fill="url(#lf_16laughing)"/>
  <path d="M-2 -4 C -8 -14, -12 -20, -16 -24" stroke="#1f9e69" stroke-width="1.6" fill="none" opacity=".5"/>
  <path d="M2 -4 C 8 -14, 12 -20, 16 -24" stroke="#1f9e69" stroke-width="1.6" fill="none" opacity=".5"/></g>
    <rect x="98" y="196" width="15" height="26" rx="7.5" fill="#118a58"/>
    <rect x="127" y="196" width="15" height="26" rx="7.5" fill="#118a58"/>
    <rect x="46" y="72" width="148" height="140" rx="60" fill="url(#bd_16laughing)"/>
    <ellipse cx="120" cy="80" rx="22" ry="9" fill="#0c4733"/>
    <ellipse cx="120" cy="79" rx="16" ry="6" fill="#093a29"/>
    <rect x="66" y="98" width="108" height="92" rx="42" fill="url(#fc_16laughing)"/>
    <ellipse cx="86" cy="112" rx="9" ry="5" fill="#fff" opacity=".55"/>
    <ellipse cx="84" cy="150" rx="9" ry="6" fill="#f0a6c2" opacity=".55"/><ellipse cx="156" cy="150" rx="9" ry="6" fill="#f0a6c2" opacity=".55"/>
    
    <path d="M83 133 q9 -9 18 0" stroke="#a32a7d" stroke-width="5" fill="none" stroke-linecap="round"/><path d="M139 133 q9 -9 18 0" stroke="#a32a7d" stroke-width="5" fill="none" stroke-linecap="round"/>
    <path d="M104 150 q16 21 32 0 z" fill="#7a1e5c"/><path d="M111 158 q9 7 18 0" fill="#ff8fb0"/>
    <path d="M101 138 q-4 8 0 12" stroke="#7fb7f0" stroke-width="3" fill="none" stroke-linecap="round"/>
    <path d="M52 150 L40 178" stroke="#118a58" stroke-width="12" stroke-linecap="round"/><circle cx="40" cy="178" r="9" fill="#118a58"/><path d="M188 150 L200 178" stroke="#118a58" stroke-width="12" stroke-linecap="round"/><circle cx="200" cy="178" r="9" fill="#118a58"/>
  </g>
  <text x="186" y="44" text-anchor="start" font-family="'Plus Jakarta Sans',system-ui,sans-serif" font-weight="800" font-size="20" fill="#e0a93b">Ha!</text><text x="206" y="68" text-anchor="start" font-family="'Plus Jakarta Sans',system-ui,sans-serif" font-weight="800" font-size="15" fill="#f2c14e">ha</text>
</svg>