<svg viewBox="-30 -28 300 300" xmlns="http://www.w3.org/2000/svg" role="img" aria-label="Rangkai mascot — Nervous">
  <defs>
    <linearGradient id="bd_17nervous" x1="0" y1="0" x2="0" y2="1"><stop offset="0" stop-color="#34c98b"/><stop offset="1" stop-color="#118a58"/></linearGradient>
    <linearGradient id="fc_17nervous" x1="0" y1="0" x2="0" y2="1"><stop offset="0" stop-color="#f4fdf8"/><stop offset="1" stop-color="#dcf3e6"/></linearGradient>
    <linearGradient id="lf_17nervous" x1="0" y1="0" x2="0" y2="1"><stop offset="0" stop-color="#3fce8f"/><stop offset="1" stop-color="#1f9e69"/></linearGradient>
  </defs>
  <ellipse cx="120" cy="244" rx="58" ry="9" fill="rgba(14,40,28,.13)"/>
  
  <g transform="">
    <path d="M120 78 C 118 63, 122 57, 120 48" stroke="#1f9e69" stroke-width="6" fill="none" stroke-linecap="round"/><g transform="translate(120 48)">
  <path d="M0 0 C -26 -10, -30 -34, -2 -30 C -6 -14, -4 -6, 0 0Z" fill="url(#lf_17nervous)"/>
  <path d="M0 0 C 26 -10, 30 -34, 2 -30 C 6 -14, 4 -6, 0 0Z" fill="url(#lf_17nervous)"/>
  <path d="M-2 -4 C -8 -14, -12 -20, -16 -24" stroke="#1f9e69" stroke-width="1.6" fill="none" opacity=".5"/>
  <path d="M2 -4 C 8 -14, 12 -20, 16 -24" stroke="#1f9e69" stroke-width="1.6" fill="none" opacity=".5"/></g>
    <rect x="98" y="196" width="15" height="26" rx="7.5" fill="#118a58"/>
    <rect x="127" y="196" width="15" height="26" rx="7.5" fill="#118a58"/>
    <rect x="46" y="72" width="148" height="140" rx="60" fill="url(#bd_17nervous)"/>
    <ellipse cx="120" cy="80" rx="22" ry="9" fill="#0c4733"/>
    <ellipse cx="120" cy="79" rx="16" ry="6" fill="#093a29"/>
    <rect x="66" y="98" width="108" height="92" rx="42" fill="url(#fc_17nervous)"/>
    <ellipse cx="86" cy="112" rx="9" ry="5" fill="#fff" opacity=".55"/>
    <ellipse cx="84" cy="152" rx="9" ry="6" fill="#f0a6c2" opacity=".4"/><ellipse cx="156" cy="152" rx="9" ry="6" fill="#f0a6c2" opacity=".4"/>
    <path d="M82 112 Q90 106 99 107" stroke="#a32a7d" stroke-width="4" fill="none" stroke-linecap="round"/><path d="M141 107 Q150 106 158 112" stroke="#a32a7d" stroke-width="4" fill="none" stroke-linecap="round"/>
    <rect x="84" y="117" width="17" height="28" rx="8.5" fill="#a32a7d"/><circle cx="89" cy="125" r="3.6" fill="#fff"/>
  <rect x="139" y="117" width="17" height="28" rx="8.5" fill="#a32a7d"/><circle cx="144" cy="125" r="3.6" fill="#fff"/>
    <path d="M107 157 q5 -6 10 0 t10 0" stroke="#7a1e5c" stroke-width="4" fill="none" stroke-linecap="round"/>
    
    <path d="M54 150 L96 186" stroke="#118a58" stroke-width="12" stroke-linecap="round"/><circle cx="96" cy="186" r="9" fill="#118a58"/><path d="M186 150 L144 186" stroke="#118a58" stroke-width="12" stroke-linecap="round"/><circle cx="144" cy="186" r="9" fill="#118a58"/>
  </g>
  <path d="M160 104 C 154.5 113.9, 154.5 121.6, 160 122.7 C 165.5 121.6, 165.5 113.9, 160 104 Z" fill="#5b8fd6"/><ellipse cx="158.4" cy="114" rx="1.3" ry="2.4" fill="#fff" opacity=".7"/><path d="M70 110 C 66 117.2, 66 122.8, 70 123.6 C 74 122.8, 74 117.2, 70 110 Z" fill="#5b8fd6"/><ellipse cx="68.4" cy="120" rx="1.3" ry="2.4" fill="#fff" opacity=".7"/>
</svg>