<svg viewBox="-30 -28 300 300" xmlns="http://www.w3.org/2000/svg" role="img" aria-label="Rangkai mascot — Cool">
  <defs>
    <linearGradient id="bd_18cool" x1="0" y1="0" x2="0" y2="1"><stop offset="0" stop-color="#34c98b"/><stop offset="1" stop-color="#118a58"/></linearGradient>
    <linearGradient id="fc_18cool" x1="0" y1="0" x2="0" y2="1"><stop offset="0" stop-color="#f4fdf8"/><stop offset="1" stop-color="#dcf3e6"/></linearGradient>
    <linearGradient id="lf_18cool" x1="0" y1="0" x2="0" y2="1"><stop offset="0" stop-color="#3fce8f"/><stop offset="1" stop-color="#1f9e69"/></linearGradient>
  </defs>
  <ellipse cx="120" cy="244" rx="58" ry="9" fill="rgba(14,40,28,.13)"/>
  
  <g transform="">
    <path d="M120 78 C 118 63, 122 57, 120 48" stroke="#1f9e69" stroke-width="6" fill="none" stroke-linecap="round"/><g transform="translate(120 48)">
  <path d="M0 0 C -26 -10, -30 -34, -2 -30 C -6 -14, -4 -6, 0 0Z" fill="url(#lf_18cool)"/>
  <path d="M0 0 C 26 -10, 30 -34, 2 -30 C 6 -14, 4 -6, 0 0Z" fill="url(#lf_18cool)"/>
  <path d="M-2 -4 C -8 -14, -12 -20, -16 -24" stroke="#1f9e69" stroke-width="1.6" fill="none" opacity=".5"/>
  <path d="M2 -4 C 8 -14, 12 -20, 16 -24" stroke="#1f9e69" stroke-width="1.6" fill="none" opacity=".5"/></g>
    <rect x="98" y="196" width="15" height="26" rx="7.5" fill="#118a58"/>
    <rect x="127" y="196" width="15" height="26" rx="7.5" fill="#118a58"/>
    <rect x="46" y="72" width="148" height="140" rx="60" fill="url(#bd_18cool)"/>
    <ellipse cx="120" cy="80" rx="22" ry="9" fill="#0c4733"/>
    <ellipse cx="120" cy="79" rx="16" ry="6" fill="#093a29"/>
    <rect x="66" y="98" width="108" height="92" rx="42" fill="url(#fc_18cool)"/>
    <ellipse cx="86" cy="112" rx="9" ry="5" fill="#fff" opacity=".55"/>
    <ellipse cx="84" cy="150" rx="9" ry="6" fill="#f0a6c2" opacity=".55"/><ellipse cx="156" cy="150" rx="9" ry="6" fill="#f0a6c2" opacity=".55"/>
    
    
    <path d="M110 157 q11 5 20 -3" stroke="#7a1e5c" stroke-width="4.5" fill="none" stroke-linecap="round"/>
    <g><path d="M71 116 h38 a7 7 0 0 1 7 7 q-26 11 -52 0 a7 7 0 0 1 7 -7 z" fill="#15323f"/><path d="M129 116 h38 a7 7 0 0 1 7 7 q-26 11 -52 0 a7 7 0 0 1 7 -7 z" fill="#15323f"/><path d="M108 120 q12 -4 24 0" stroke="#15323f" stroke-width="5" fill="none"/><path d="M78 121 l9 9 M86 121 l7 7" stroke="#fff" stroke-width="2.4" opacity=".5" stroke-linecap="round"/></g>
    <path d="M52 150 L40 178" stroke="#118a58" stroke-width="12" stroke-linecap="round"/><circle cx="40" cy="178" r="9" fill="#118a58"/><path d="M186 150 L202 150" stroke="#118a58" stroke-width="12" stroke-linecap="round"/><g transform="translate(206 148)"><rect x="-9" y="-1" width="18" height="15" rx="6" fill="#118a58"/><rect x="-2" y="-13" width="11" height="14" rx="5.5" fill="#118a58"/></g>
  </g>
  <path d="M132 112.4 L133.6 116.4 L137.6 118 L133.6 119.6 L132 123.6 L130.4 119.6 L126.4 118 L130.4 116.4 Z" fill="#fff"/>
</svg>