<svg viewBox="-30 -28 300 300" xmlns="http://www.w3.org/2000/svg" role="img" aria-label="Rangkai mascot — Mind blown">
  <defs>
    <linearGradient id="bd_19mindblown" x1="0" y1="0" x2="0" y2="1"><stop offset="0" stop-color="#34c98b"/><stop offset="1" stop-color="#118a58"/></linearGradient>
    <linearGradient id="fc_19mindblown" x1="0" y1="0" x2="0" y2="1"><stop offset="0" stop-color="#f4fdf8"/><stop offset="1" stop-color="#dcf3e6"/></linearGradient>
    <linearGradient id="lf_19mindblown" x1="0" y1="0" x2="0" y2="1"><stop offset="0" stop-color="#3fce8f"/><stop offset="1" stop-color="#1f9e69"/></linearGradient>
  </defs>
  <ellipse cx="120" cy="244" rx="58" ry="9" fill="rgba(14,40,28,.13)"/>
  
  <g transform="">
    
    <rect x="98" y="196" width="15" height="26" rx="7.5" fill="#118a58"/>
    <rect x="127" y="196" width="15" height="26" rx="7.5" fill="#118a58"/>
    <rect x="46" y="72" width="148" height="140" rx="60" fill="url(#bd_19mindblown)"/>
    <ellipse cx="120" cy="80" rx="22" ry="9" fill="#0c4733"/>
    <ellipse cx="120" cy="79" rx="16" ry="6" fill="#093a29"/>
    <rect x="66" y="98" width="108" height="92" rx="42" fill="url(#fc_19mindblown)"/>
    <ellipse cx="86" cy="112" rx="9" ry="5" fill="#fff" opacity=".55"/>
    <ellipse cx="84" cy="150" rx="9" ry="6" fill="#f0a6c2" opacity=".55"/><ellipse cx="156" cy="150" rx="9" ry="6" fill="#f0a6c2" opacity=".55"/>
    
    <circle cx="92" cy="130" r="15.5" fill="#fff" stroke="#a32a7d" stroke-width="3"/><circle cx="92" cy="132" r="8.5" fill="#a32a7d"/><circle cx="95.5" cy="128.5" r="3" fill="#fff"/>
  <circle cx="148" cy="130" r="15.5" fill="#fff" stroke="#a32a7d" stroke-width="3"/><circle cx="148" cy="132" r="8.5" fill="#a32a7d"/><circle cx="151.5" cy="128.5" r="3" fill="#fff"/>
    <ellipse cx="120" cy="160" rx="9" ry="12" fill="#7a1e5c"/>
    
    <path d="M54 150 L40 120" stroke="#118a58" stroke-width="12" stroke-linecap="round"/><circle cx="40" cy="120" r="9" fill="#118a58"/><path d="M186 150 L200 120" stroke="#118a58" stroke-width="12" stroke-linecap="round"/><circle cx="200" cy="120" r="9" fill="#118a58"/>
  </g>
  <g transform="translate(120 34)"><path d="M0 -26 L7 -8 26 -10 12 4 20 22 0 12 -20 22 -12 4 -26 -10 -7 -8 Z" fill="#f2c14e"/><circle cx="-13" cy="-3" r="7" fill="#fff" opacity=".85"/><circle cx="13" cy="-1" r="6" fill="#fff" opacity=".75"/><circle cx="0" cy="-13" r="5" fill="#fff" opacity=".7"/><path d="M-26 -27.6 L-24.4 -23.6 L-20.4 -22 L-24.4 -20.4 L-26 -16.4 L-27.6 -20.4 L-31.6 -22 L-27.6 -23.6 Z" fill="#fff"/><path d="M26 -25.6 L27.6 -21.6 L31.6 -20 L27.6 -18.4 L26 -14.399999999999999 L24.4 -18.4 L20.4 -20 L24.4 -21.6 Z" fill="#f2c14e"/></g><path d="M46 64.4 L47.6 68.4 L51.6 70 L47.6 71.6 L46 75.6 L44.4 71.6 L40.4 70 L44.4 68.4 Z" fill="#f2c14e"/><path d="M196 70.4 L197.6 74.4 L201.6 76 L197.6 77.6 L196 81.6 L194.4 77.6 L190.4 76 L194.4 74.4 Z" fill="#f2c14e"/>
</svg>