<svg viewBox="-30 -28 300 300" xmlns="http://www.w3.org/2000/svg" role="img" aria-label="Rangkai mascot — Dizzy">
  <defs>
    <linearGradient id="bd_20dizzy" x1="0" y1="0" x2="0" y2="1"><stop offset="0" stop-color="#34c98b"/><stop offset="1" stop-color="#118a58"/></linearGradient>
    <linearGradient id="fc_20dizzy" x1="0" y1="0" x2="0" y2="1"><stop offset="0" stop-color="#f4fdf8"/><stop offset="1" stop-color="#dcf3e6"/></linearGradient>
    <linearGradient id="lf_20dizzy" x1="0" y1="0" x2="0" y2="1"><stop offset="0" stop-color="#3fce8f"/><stop offset="1" stop-color="#1f9e69"/></linearGradient>
  </defs>
  <ellipse cx="120" cy="244" rx="58" ry="9" fill="rgba(14,40,28,.13)"/>
  
  <g transform="rotate(-4 120 150)">
    <path d="M120 78 C 118 63, 122 57, 120 48" stroke="#1f9e69" stroke-width="6" fill="none" stroke-linecap="round"/><g transform="translate(120 48)">
  <path d="M0 0 C -26 -10, -30 -34, -2 -30 C -6 -14, -4 -6, 0 0Z" fill="url(#lf_20dizzy)"/>
  <path d="M0 0 C 26 -10, 30 -34, 2 -30 C 6 -14, 4 -6, 0 0Z" fill="url(#lf_20dizzy)"/>
  <path d="M-2 -4 C -8 -14, -12 -20, -16 -24" stroke="#1f9e69" stroke-width="1.6" fill="none" opacity=".5"/>
  <path d="M2 -4 C 8 -14, 12 -20, 16 -24" stroke="#1f9e69" stroke-width="1.6" fill="none" opacity=".5"/></g>
    <rect x="98" y="196" width="15" height="26" rx="7.5" fill="#118a58"/>
    <rect x="127" y="196" width="15" height="26" rx="7.5" fill="#118a58"/>
    <rect x="46" y="72" width="148" height="140" rx="60" fill="url(#bd_20dizzy)"/>
    <ellipse cx="120" cy="80" rx="22" ry="9" fill="#0c4733"/>
    <ellipse cx="120" cy="79" rx="16" ry="6" fill="#093a29"/>
    <rect x="66" y="98" width="108" height="92" rx="42" fill="url(#fc_20dizzy)"/>
    <ellipse cx="86" cy="112" rx="9" ry="5" fill="#fff" opacity=".55"/>
    <ellipse cx="84" cy="152" rx="9" ry="6" fill="#f0a6c2" opacity=".4"/><ellipse cx="156" cy="152" rx="9" ry="6" fill="#f0a6c2" opacity=".4"/>
    
    <path d="M92 130 a3 3 0 1 1 -3 -3 a7 7 0 1 1 7 7 a11 11 0 1 1 -11 -11" fill="none" stroke="#a32a7d" stroke-width="2.6" stroke-linecap="round"/><path d="M148 130 a3 3 0 1 1 -3 -3 a7 7 0 1 1 7 7 a11 11 0 1 1 -11 -11" fill="none" stroke="#a32a7d" stroke-width="2.6" stroke-linecap="round"/>
    <path d="M107 157 q5 -6 10 0 t10 0" stroke="#7a1e5c" stroke-width="4" fill="none" stroke-linecap="round"/>
    
    <path d="M52 150 L40 178" stroke="#118a58" stroke-width="12" stroke-linecap="round"/><circle cx="40" cy="178" r="9" fill="#118a58"/><path d="M188 150 L200 178" stroke="#118a58" stroke-width="12" stroke-linecap="round"/><circle cx="200" cy="178" r="9" fill="#118a58"/>
  </g>
  <path d="M94 11.100000000000001 L95.4 14.6 L98.9 16 L95.4 17.4 L94 20.9 L92.6 17.4 L89.1 16 L92.6 14.6 Z" fill="#a32a7d"/><path d="M120 0.04999999999999982 L121.7 4.3 L125.95 6 L121.7 7.7 L120 11.95 L118.3 7.7 L114.05 6 L118.3 4.3 Z" fill="#f2c14e"/><path d="M146 11.100000000000001 L147.4 14.6 L150.9 16 L147.4 17.4 L146 20.9 L144.6 17.4 L141.1 16 L144.6 14.6 Z" fill="#a32a7d"/>
</svg>