<svg viewBox="-30 -28 300 300" xmlns="http://www.w3.org/2000/svg" role="img" aria-label="Rangkai mascot — Studying">
  <defs>
    <linearGradient id="bd_21studying" x1="0" y1="0" x2="0" y2="1"><stop offset="0" stop-color="#34c98b"/><stop offset="1" stop-color="#118a58"/></linearGradient>
    <linearGradient id="fc_21studying" x1="0" y1="0" x2="0" y2="1"><stop offset="0" stop-color="#f4fdf8"/><stop offset="1" stop-color="#dcf3e6"/></linearGradient>
    <linearGradient id="lf_21studying" x1="0" y1="0" x2="0" y2="1"><stop offset="0" stop-color="#3fce8f"/><stop offset="1" stop-color="#1f9e69"/></linearGradient>
  </defs>
  <ellipse cx="120" cy="244" rx="58" ry="9" fill="rgba(14,40,28,.13)"/>
  
  <g transform="">
    <path d="M120 78 C 118 63, 122 57, 120 48" stroke="#1f9e69" stroke-width="6" fill="none" stroke-linecap="round"/><g transform="translate(120 48)">
  <path d="M0 0 C -26 -10, -30 -34, -2 -30 C -6 -14, -4 -6, 0 0Z" fill="url(#lf_21studying)"/>
  <path d="M0 0 C 26 -10, 30 -34, 2 -30 C 6 -14, 4 -6, 0 0Z" fill="url(#lf_21studying)"/>
  <path d="M-2 -4 C -8 -14, -12 -20, -16 -24" stroke="#1f9e69" stroke-width="1.6" fill="none" opacity=".5"/>
  <path d="M2 -4 C 8 -14, 12 -20, 16 -24" stroke="#1f9e69" stroke-width="1.6" fill="none" opacity=".5"/></g>
    <rect x="98" y="196" width="15" height="26" rx="7.5" fill="#118a58"/>
    <rect x="127" y="196" width="15" height="26" rx="7.5" fill="#118a58"/>
    <rect x="46" y="72" width="148" height="140" rx="60" fill="url(#bd_21studying)"/>
    <ellipse cx="120" cy="80" rx="22" ry="9" fill="#0c4733"/>
    <ellipse cx="120" cy="79" rx="16" ry="6" fill="#093a29"/>
    <rect x="66" y="98" width="108" height="92" rx="42" fill="url(#fc_21studying)"/>
    <ellipse cx="86" cy="112" rx="9" ry="5" fill="#fff" opacity=".55"/>
    <ellipse cx="84" cy="150" rx="9" ry="6" fill="#f0a6c2" opacity=".55"/><ellipse cx="156" cy="150" rx="9" ry="6" fill="#f0a6c2" opacity=".55"/>
    
    <rect x="84" y="120" width="17" height="28" rx="8.5" fill="#a32a7d"/><circle cx="89" cy="128" r="3.6" fill="#fff"/>
  <rect x="139" y="120" width="17" height="28" rx="8.5" fill="#a32a7d"/><circle cx="144" cy="128" r="3.6" fill="#fff"/>
    <path d="M113 154 q7 6 14 0" stroke="#7a1e5c" stroke-width="4" fill="none" stroke-linecap="round"/>
    
    <path d="M54 150 L90 182" stroke="#118a58" stroke-width="12" stroke-linecap="round"/><circle cx="90" cy="182" r="9" fill="#118a58"/><path d="M186 150 L150 182" stroke="#118a58" stroke-width="12" stroke-linecap="round"/><circle cx="150" cy="182" r="9" fill="#118a58"/>
  </g>
  <g transform="translate(120 184)"><path d="M0 -4 L-38 -12 L-38 14 L0 18 Z" fill="#f6fdf9" stroke="#bcd3c4" stroke-width="2" stroke-linejoin="round"/><path d="M0 -4 L38 -12 L38 14 L0 18 Z" fill="#e9f6ef" stroke="#bcd3c4" stroke-width="2" stroke-linejoin="round"/><path d="M-30 -6 l22 3 M-30 0 l22 3 M-30 6 l20 3" stroke="#bcd3c4" stroke-width="1.6" stroke-linecap="round"/><path d="M30 -6 l-22 3 M30 0 l-22 3 M30 6 l-20 3" stroke="#bcd3c4" stroke-width="1.6" stroke-linecap="round"/><path d="M-40 12 L0 18 L40 12 L40 19 L0 25 L-40 19 Z" fill="#0e5c43"/></g>
</svg>