<svg viewBox="-30 -28 300 300" xmlns="http://www.w3.org/2000/svg" role="img" aria-label="Rangkai mascot — Idea">
  <defs>
    <linearGradient id="bd_23idea" x1="0" y1="0" x2="0" y2="1"><stop offset="0" stop-color="#34c98b"/><stop offset="1" stop-color="#118a58"/></linearGradient>
    <linearGradient id="fc_23idea" x1="0" y1="0" x2="0" y2="1"><stop offset="0" stop-color="#f4fdf8"/><stop offset="1" stop-color="#dcf3e6"/></linearGradient>
    <linearGradient id="lf_23idea" x1="0" y1="0" x2="0" y2="1"><stop offset="0" stop-color="#3fce8f"/><stop offset="1" stop-color="#1f9e69"/></linearGradient>
  </defs>
  <ellipse cx="120" cy="244" rx="58" ry="9" fill="rgba(14,40,28,.13)"/>
  
  <g transform="">
    <path d="M120 78 C 118 63, 122 57, 120 48" stroke="#1f9e69" stroke-width="6" fill="none" stroke-linecap="round"/><g transform="translate(120 48)">
  <path d="M0 0 C -26 -10, -30 -34, -2 -30 C -6 -14, -4 -6, 0 0Z" fill="url(#lf_23idea)"/>
  <path d="M0 0 C 26 -10, 30 -34, 2 -30 C 6 -14, 4 -6, 0 0Z" fill="url(#lf_23idea)"/>
  <path d="M-2 -4 C -8 -14, -12 -20, -16 -24" stroke="#1f9e69" stroke-width="1.6" fill="none" opacity=".5"/>
  <path d="M2 -4 C 8 -14, 12 -20, 16 -24" stroke="#1f9e69" stroke-width="1.6" fill="none" opacity=".5"/></g>
    <rect x="98" y="196" width="15" height="26" rx="7.5" fill="#118a58"/>
    <rect x="127" y="196" width="15" height="26" rx="7.5" fill="#118a58"/>
    <rect x="46" y="72" width="148" height="140" rx="60" fill="url(#bd_23idea)"/>
    <ellipse cx="120" cy="80" rx="22" ry="9" fill="#0c4733"/>
    <ellipse cx="120" cy="79" rx="16" ry="6" fill="#093a29"/>
    <rect x="66" y="98" width="108" height="92" rx="42" fill="url(#fc_23idea)"/>
    <ellipse cx="86" cy="112" rx="9" ry="5" fill="#fff" opacity=".55"/>
    <ellipse cx="84" cy="150" rx="9" ry="6" fill="#f0a6c2" opacity=".55"/><ellipse cx="156" cy="150" rx="9" ry="6" fill="#f0a6c2" opacity=".55"/>
    
    <circle cx="92" cy="130" r="15.5" fill="#fff" stroke="#a32a7d" stroke-width="3"/><circle cx="92" cy="132" r="8.5" fill="#a32a7d"/><circle cx="95.5" cy="128.5" r="3" fill="#fff"/>
  <circle cx="148" cy="130" r="15.5" fill="#fff" stroke="#a32a7d" stroke-width="3"/><circle cx="148" cy="132" r="8.5" fill="#a32a7d"/><circle cx="151.5" cy="128.5" r="3" fill="#fff"/>
    <path d="M108 150 q12 16 24 0 z" fill="#7a1e5c"/><path d="M113 157 q7 6 14 0" fill="#ff8fb0"/>
    
    <path d="M52 150 L40 178" stroke="#118a58" stroke-width="12" stroke-linecap="round"/><circle cx="40" cy="178" r="9" fill="#118a58"/><path d="M186 148 L202 118 L202 92" stroke="#118a58" stroke-width="12" stroke-linecap="round" stroke-linejoin="round" fill="none"/><rect x="198" y="82" width="8" height="14" rx="4" fill="#118a58"/>
  </g>
  <g transform="translate(120 28)"><path d="M0 -28 v8 M-19 -19 l5 6 M19 -19 l-5 6 M-27 1 h7 M27 1 h-7" stroke="#f2c14e" stroke-width="3" stroke-linecap="round"/><circle cx="0" cy="0" r="16" fill="#f2c14e" stroke="#e0a93b" stroke-width="2"/><circle cx="-5" cy="-5" r="5" fill="#fff" opacity=".5"/><rect x="-7" y="13" width="14" height="6" rx="2" fill="#c9b06a"/><rect x="-7" y="18" width="14" height="3.4" rx="1.7" fill="#b39a52"/><path d="M-4 -3 q4 7 8 0" stroke="#e0a93b" stroke-width="2" fill="none"/></g>
</svg>