<svg viewBox="-30 -28 300 300" xmlns="http://www.w3.org/2000/svg" role="img" aria-label="Rangkai mascot — On the app">
  <defs>
    <linearGradient id="bd_24phone" x1="0" y1="0" x2="0" y2="1"><stop offset="0" stop-color="#34c98b"/><stop offset="1" stop-color="#118a58"/></linearGradient>
    <linearGradient id="fc_24phone" x1="0" y1="0" x2="0" y2="1"><stop offset="0" stop-color="#f4fdf8"/><stop offset="1" stop-color="#dcf3e6"/></linearGradient>
    <linearGradient id="lf_24phone" x1="0" y1="0" x2="0" y2="1"><stop offset="0" stop-color="#3fce8f"/><stop offset="1" stop-color="#1f9e69"/></linearGradient>
  </defs>
  <ellipse cx="120" cy="244" rx="58" ry="9" fill="rgba(14,40,28,.13)"/>
  
  <g transform="">
    <path d="M120 78 C 118 63, 122 57, 120 48" stroke="#1f9e69" stroke-width="6" fill="none" stroke-linecap="round"/><g transform="translate(120 48)">
  <path d="M0 0 C -26 -10, -30 -34, -2 -30 C -6 -14, -4 -6, 0 0Z" fill="url(#lf_24phone)"/>
  <path d="M0 0 C 26 -10, 30 -34, 2 -30 C 6 -14, 4 -6, 0 0Z" fill="url(#lf_24phone)"/>
  <path d="M-2 -4 C -8 -14, -12 -20, -16 -24" stroke="#1f9e69" stroke-width="1.6" fill="none" opacity=".5"/>
  <path d="M2 -4 C 8 -14, 12 -20, 16 -24" stroke="#1f9e69" stroke-width="1.6" fill="none" opacity=".5"/></g>
    <rect x="98" y="196" width="15" height="26" rx="7.5" fill="#118a58"/>
    <rect x="127" y="196" width="15" height="26" rx="7.5" fill="#118a58"/>
    <rect x="46" y="72" width="148" height="140" rx="60" fill="url(#bd_24phone)"/>
    <ellipse cx="120" cy="80" rx="22" ry="9" fill="#0c4733"/>
    <ellipse cx="120" cy="79" rx="16" ry="6" fill="#093a29"/>
    <rect x="66" y="98" width="108" height="92" rx="42" fill="url(#fc_24phone)"/>
    <ellipse cx="86" cy="112" rx="9" ry="5" fill="#fff" opacity=".55"/>
    <ellipse cx="84" cy="150" rx="9" ry="6" fill="#f0a6c2" opacity=".55"/><ellipse cx="156" cy="150" rx="9" ry="6" fill="#f0a6c2" opacity=".55"/>
    
    <rect x="84" y="119" width="17" height="28" rx="8.5" fill="#a32a7d"/><circle cx="89" cy="127" r="3.6" fill="#fff"/>
  <rect x="139" y="119" width="17" height="28" rx="8.5" fill="#a32a7d"/><circle cx="144" cy="127" r="3.6" fill="#fff"/>
    <path d="M113 154 q7 6 14 0" stroke="#7a1e5c" stroke-width="4" fill="none" stroke-linecap="round"/>
    
    <path d="M54 150 L98 184" stroke="#118a58" stroke-width="12" stroke-linecap="round"/><circle cx="98" cy="184" r="9" fill="#118a58"/><path d="M186 150 L142 184" stroke="#118a58" stroke-width="12" stroke-linecap="round"/><circle cx="142" cy="184" r="9" fill="#118a58"/>
  </g>
  <g transform="translate(120 184)"><rect x="-17" y="-24" width="34" height="48" rx="8" fill="#0e5c43"/><rect x="-13" y="-19" width="26" height="36" rx="3" fill="#eafaf1"/><ellipse cx="-3" cy="-2" rx="5" ry="7.5" fill="#1f9e69"/><ellipse cx="4" cy="-4" rx="4.4" ry="6.5" fill="#3fce8f"/><rect x="-2" y="4" width="3" height="9" rx="1.5" fill="#1f9e69"/><circle cx="0" cy="20" r="2.4" fill="#cfe7d8"/></g><path d="M150 144.4 L151.6 148.4 L155.6 150 L151.6 151.6 L150 155.6 L148.4 151.6 L144.4 150 L148.4 148.4 Z" fill="#f2c14e"/>
</svg>