<svg viewBox="-30 -28 300 300" xmlns="http://www.w3.org/2000/svg" role="img" aria-label="Rangkai mascot — Searching">
  <defs>
    <linearGradient id="bd_25search" x1="0" y1="0" x2="0" y2="1"><stop offset="0" stop-color="#34c98b"/><stop offset="1" stop-color="#118a58"/></linearGradient>
    <linearGradient id="fc_25search" x1="0" y1="0" x2="0" y2="1"><stop offset="0" stop-color="#f4fdf8"/><stop offset="1" stop-color="#dcf3e6"/></linearGradient>
    <linearGradient id="lf_25search" x1="0" y1="0" x2="0" y2="1"><stop offset="0" stop-color="#3fce8f"/><stop offset="1" stop-color="#1f9e69"/></linearGradient>
  </defs>
  <ellipse cx="120" cy="244" rx="58" ry="9" fill="rgba(14,40,28,.13)"/>
  
  <g transform="">
    <path d="M120 78 C 118 63, 122 57, 120 48" stroke="#1f9e69" stroke-width="6" fill="none" stroke-linecap="round"/><g transform="translate(120 48)">
  <path d="M0 0 C -26 -10, -30 -34, -2 -30 C -6 -14, -4 -6, 0 0Z" fill="url(#lf_25search)"/>
  <path d="M0 0 C 26 -10, 30 -34, 2 -30 C 6 -14, 4 -6, 0 0Z" fill="url(#lf_25search)"/>
  <path d="M-2 -4 C -8 -14, -12 -20, -16 -24" stroke="#1f9e69" stroke-width="1.6" fill="none" opacity=".5"/>
  <path d="M2 -4 C 8 -14, 12 -20, 16 -24" stroke="#1f9e69" stroke-width="1.6" fill="none" opacity=".5"/></g>
    <rect x="98" y="196" width="15" height="26" rx="7.5" fill="#118a58"/>
    <rect x="127" y="196" width="15" height="26" rx="7.5" fill="#118a58"/>
    <rect x="46" y="72" width="148" height="140" rx="60" fill="url(#bd_25search)"/>
    <ellipse cx="120" cy="80" rx="22" ry="9" fill="#0c4733"/>
    <ellipse cx="120" cy="79" rx="16" ry="6" fill="#093a29"/>
    <rect x="66" y="98" width="108" height="92" rx="42" fill="url(#fc_25search)"/>
    <ellipse cx="86" cy="112" rx="9" ry="5" fill="#fff" opacity=".55"/>
    <ellipse cx="84" cy="150" rx="9" ry="6" fill="#f0a6c2" opacity=".55"/><ellipse cx="156" cy="150" rx="9" ry="6" fill="#f0a6c2" opacity=".55"/>
    <path d="M139 101 q9 -5 19 1" stroke="#a32a7d" stroke-width="4" fill="none" stroke-linecap="round"/>
    <ellipse cx="92" cy="130" rx="9" ry="11" fill="#fff" stroke="#a32a7d" stroke-width="2.6"/><circle cx="95" cy="125" r="5" fill="#a32a7d"/>
  <ellipse cx="148" cy="130" rx="9" ry="11" fill="#fff" stroke="#a32a7d" stroke-width="2.6"/><circle cx="151" cy="125" r="5" fill="#a32a7d"/>
    <ellipse cx="120" cy="157" rx="5.5" ry="4" fill="#7a1e5c"/>
    
    <path d="M52 150 L40 178" stroke="#118a58" stroke-width="12" stroke-linecap="round"/><circle cx="40" cy="178" r="9" fill="#118a58"/><path d="M186 150 L196 172 L168 186" stroke="#118a58" stroke-width="12" stroke-linecap="round" stroke-linejoin="round" fill="none"/><circle cx="168" cy="186" r="9" fill="#118a58"/>
  </g>
  <g transform="translate(152 178)"><rect x="9" y="9" width="22" height="8" rx="4" fill="#5b8fd6" transform="rotate(45 9 9)"/><circle cx="0" cy="0" r="15" fill="#dff0ff" stroke="#5b8fd6" stroke-width="4"/><path d="M-6 -7 a9 9 0 0 1 8 -4" stroke="#fff" stroke-width="2.6" fill="none" stroke-linecap="round" opacity=".7"/></g>
</svg>