<svg viewBox="-30 -28 300 300" xmlns="http://www.w3.org/2000/svg" role="img" aria-label="Rangkai mascot — Thumbs up">
  <defs>
    <linearGradient id="bd_26thumbsup" x1="0" y1="0" x2="0" y2="1"><stop offset="0" stop-color="#34c98b"/><stop offset="1" stop-color="#118a58"/></linearGradient>
    <linearGradient id="fc_26thumbsup" x1="0" y1="0" x2="0" y2="1"><stop offset="0" stop-color="#f4fdf8"/><stop offset="1" stop-color="#dcf3e6"/></linearGradient>
    <linearGradient id="lf_26thumbsup" x1="0" y1="0" x2="0" y2="1"><stop offset="0" stop-color="#3fce8f"/><stop offset="1" stop-color="#1f9e69"/></linearGradient>
  </defs>
  <ellipse cx="120" cy="244" rx="58" ry="9" fill="rgba(14,40,28,.13)"/>
  
  <g transform="">
    <path d="M120 78 C 118 63, 122 57, 120 48" stroke="#1f9e69" stroke-width="6" fill="none" stroke-linecap="round"/><g transform="translate(120 48)">
  <path d="M0 0 C -26 -10, -30 -34, -2 -30 C -6 -14, -4 -6, 0 0Z" fill="url(#lf_26thumbsup)"/>
  <path d="M0 0 C 26 -10, 30 -34, 2 -30 C 6 -14, 4 -6, 0 0Z" fill="url(#lf_26thumbsup)"/>
  <path d="M-2 -4 C -8 -14, -12 -20, -16 -24" stroke="#1f9e69" stroke-width="1.6" fill="none" opacity=".5"/>
  <path d="M2 -4 C 8 -14, 12 -20, 16 -24" stroke="#1f9e69" stroke-width="1.6" fill="none" opacity=".5"/></g>
    <rect x="98" y="196" width="15" height="26" rx="7.5" fill="#118a58"/>
    <rect x="127" y="196" width="15" height="26" rx="7.5" fill="#118a58"/>
    <rect x="46" y="72" width="148" height="140" rx="60" fill="url(#bd_26thumbsup)"/>
    <ellipse cx="120" cy="80" rx="22" ry="9" fill="#0c4733"/>
    <ellipse cx="120" cy="79" rx="16" ry="6" fill="#093a29"/>
    <rect x="66" y="98" width="108" height="92" rx="42" fill="url(#fc_26thumbsup)"/>
    <ellipse cx="86" cy="112" rx="9" ry="5" fill="#fff" opacity=".55"/>
    <ellipse cx="84" cy="150" rx="9" ry="6" fill="#f0a6c2" opacity=".55"/><ellipse cx="156" cy="150" rx="9" ry="6" fill="#f0a6c2" opacity=".55"/>
    
    <rect x="84" y="118" width="17" height="26" rx="8.5" fill="#a32a7d"/><circle cx="89" cy="125" r="3.4" fill="#fff"/><path d="M139 133 q9 -9 18 0" stroke="#a32a7d" stroke-width="5" fill="none" stroke-linecap="round"/>
    <path d="M108 150 q12 16 24 0 z" fill="#7a1e5c"/><path d="M113 157 q7 6 14 0" fill="#ff8fb0"/>
    
    <path d="M54 150 L40 150" stroke="#118a58" stroke-width="12" stroke-linecap="round"/><g transform="translate(36 148)"><rect x="-9" y="-1" width="18" height="15" rx="6" fill="#118a58"/><rect x="-2" y="-13" width="11" height="14" rx="5.5" fill="#118a58"/></g><path d="M186 150 L200 150" stroke="#118a58" stroke-width="12" stroke-linecap="round"/><g transform="translate(204 148)"><rect x="-9" y="-1" width="18" height="15" rx="6" fill="#118a58"/><rect x="-2" y="-13" width="11" height="14" rx="5.5" fill="#118a58"/></g>
  </g>
  <path d="M28 126.4 L29.6 130.4 L33.6 132 L29.6 133.6 L28 137.6 L26.4 133.6 L22.4 132 L26.4 130.4 Z" fill="#f2c14e"/>
</svg>