<svg viewBox="-30 -28 300 300" xmlns="http://www.w3.org/2000/svg" role="img" aria-label="Rangkai mascot — Graduate">
  <defs>
    <linearGradient id="bd_32gradcap" x1="0" y1="0" x2="0" y2="1"><stop offset="0" stop-color="#34c98b"/><stop offset="1" stop-color="#118a58"/></linearGradient>
    <linearGradient id="fc_32gradcap" x1="0" y1="0" x2="0" y2="1"><stop offset="0" stop-color="#f4fdf8"/><stop offset="1" stop-color="#dcf3e6"/></linearGradient>
    <linearGradient id="lf_32gradcap" x1="0" y1="0" x2="0" y2="1"><stop offset="0" stop-color="#3fce8f"/><stop offset="1" stop-color="#1f9e69"/></linearGradient>
  </defs>
  <ellipse cx="120" cy="244" rx="58" ry="9" fill="rgba(14,40,28,.13)"/>
  
  <g transform="">
    
    <rect x="98" y="196" width="15" height="26" rx="7.5" fill="#118a58"/>
    <rect x="127" y="196" width="15" height="26" rx="7.5" fill="#118a58"/>
    <rect x="46" y="72" width="148" height="140" rx="60" fill="url(#bd_32gradcap)"/>
    <ellipse cx="120" cy="80" rx="22" ry="9" fill="#0c4733"/>
    <ellipse cx="120" cy="79" rx="16" ry="6" fill="#093a29"/>
    <rect x="66" y="98" width="108" height="92" rx="42" fill="url(#fc_32gradcap)"/>
    <ellipse cx="86" cy="112" rx="9" ry="5" fill="#fff" opacity=".55"/>
    <ellipse cx="84" cy="150" rx="9" ry="6" fill="#f0a6c2" opacity=".55"/><ellipse cx="156" cy="150" rx="9" ry="6" fill="#f0a6c2" opacity=".55"/>
    
    <path d="M83 133 q9 -9 18 0" stroke="#a32a7d" stroke-width="5" fill="none" stroke-linecap="round"/><path d="M139 133 q9 -9 18 0" stroke="#a32a7d" stroke-width="5" fill="none" stroke-linecap="round"/>
    <path d="M108 150 q12 16 24 0 z" fill="#7a1e5c"/><path d="M113 157 q7 6 14 0" fill="#ff8fb0"/>
    
    <path d="M52 150 L40 178" stroke="#118a58" stroke-width="12" stroke-linecap="round"/><circle cx="40" cy="178" r="9" fill="#118a58"/><path d="M188 150 L200 178" stroke="#118a58" stroke-width="12" stroke-linecap="round"/><circle cx="200" cy="178" r="9" fill="#118a58"/>
  </g>
  <g transform="translate(120 60)"><path d="M0 9 L27 11 L27 26" stroke="#f2c14e" stroke-width="2.4" fill="none"/><path d="M27 26 l-4.5 12 l9 0 z" fill="#f2c14e"/><path d="M-19 13 Q0 22 19 13 L19 22 Q0 31 -19 22 Z" fill="#27345a"/><path d="M0 -2 L-36 9 L0 20 L36 9 Z" fill="#1d2742"/><circle cx="0" cy="9" r="3.2" fill="#f2c14e"/></g><path d="M56 64.4 L57.6 68.4 L61.6 70 L57.6 71.6 L56 75.6 L54.4 71.6 L50.4 70 L54.4 68.4 Z" fill="#f2c14e"/><path d="M190 58.4 L191.6 62.4 L195.6 64 L191.6 65.6 L190 69.6 L188.4 65.6 L184.4 64 L188.4 62.4 Z" fill="#f2c14e"/><path d="M120 -17.6 L121.6 -13.6 L125.6 -12 L121.6 -10.4 L120 -6.3999999999999995 L118.4 -10.4 L114.4 -12 L118.4 -13.6 Z" fill="#f2c14e"/>
</svg>